<svg width="25" height="24" viewBox="0 0 25 24" fill="none" xmlns="http://www.w3.org/2000/svg">
<g clip-path="url(#clip0_5339_295)">
<path fill-rule="evenodd" clip-rule="evenodd" d="M12.6665 24C19.2939 24 24.6665 18.6274 24.6665 12C24.6665 5.37258 19.2939 0 12.6665 0C6.03909 0 0.666504 5.37258 0.666504 12C0.666504 18.6274 6.03909 24 12.6665 24ZM18.9646 9.16163V11.2523C19.1697 11.2713 19.4728 11.3535 19.6142 11.6964C19.6554 11.7976 19.6727 11.9071 19.6646 12.0162V13.3781C19.6646 13.5645 19.5908 13.7432 19.4596 13.875C19.3283 14.0068 19.1503 14.0808 18.9646 14.0808V17.5945C18.9646 17.9673 18.8172 18.3248 18.5547 18.5883C18.2921 18.8519 17.9361 19 17.5648 19H7.76621C7.39496 19 7.03891 18.8519 6.7764 18.5883C6.51389 18.3248 6.36641 17.9673 6.36641 17.5945V14.0808C6.18078 14.0808 6.00276 14.0068 5.8715 13.875C5.74024 13.7432 5.6665 13.5645 5.6665 13.3781V11.9726C5.66641 11.795 5.73338 11.6239 5.8539 11.4939C5.97443 11.3639 6.13956 11.2846 6.31601 11.272L6.36641 11.2684V9.16163C6.36641 8.78887 6.51389 8.43138 6.7764 8.1678C7.03891 7.90423 7.39496 7.75615 7.76621 7.75615H11.9656V6.83415C11.7522 6.6416 11.6157 6.36472 11.6157 6.05411C11.6157 5.77454 11.7263 5.50643 11.9232 5.30874C12.1201 5.11106 12.3871 5 12.6655 5C12.944 5 13.211 5.11106 13.4079 5.30874C13.6048 5.50643 13.7154 5.77454 13.7154 6.05411C13.7154 6.36472 13.5789 6.6416 13.3654 6.83415V7.75615H17.5648C17.9361 7.75615 18.2921 7.90423 18.5547 8.1678C18.8172 8.43138 18.9646 8.78887 18.9646 9.16163ZM10.2159 10.5671C9.63635 10.5671 9.16602 11.1968 9.16602 11.9726C9.16602 12.7484 9.63635 13.3781 10.2159 13.3781C10.7954 13.3781 11.2657 12.7484 11.2657 11.9726C11.2657 11.1968 10.7954 10.5671 10.2159 10.5671ZM9.86592 16.189C9.86592 16.189 14.7631 16.1869 15.4637 16.189L15.4665 14.7836C14.7659 14.7822 9.86592 14.7836 9.86592 14.7836V16.189ZM14.0653 11.9726C14.0653 12.7484 14.5357 13.3781 15.1152 13.3781C15.6947 13.3781 16.165 12.7484 16.165 11.9726C16.165 11.1968 15.6947 10.5671 15.1152 10.5671C14.5357 10.5671 14.0653 11.1968 14.0653 11.9726Z" fill="white"/>
</g>
<defs>
<clipPath id="clip0_5339_295">
<rect width="24" height="24" fill="white" transform="translate(0.666504)"/>
</clipPath>
</defs>
</svg>
