<svg width="24" height="24" viewBox="0 0 24 24" fill="none" xmlns="http://www.w3.org/2000/svg">
<g clip-path="url(#clip0_5339_319)">
<path fill-rule="evenodd" clip-rule="evenodd" d="M12 24C18.6274 24 24 18.6274 24 12C24 5.37258 18.6274 0 12 0C5.37258 0 0 5.37258 0 12C0 18.6274 5.37258 24 12 24ZM4.56691 10.7632L4.44077 10.584C4.29741 10.5782 4.19054 10.5786 4.07957 10.5981C4.04112 10.5734 4.01338 10.5515 4 10.5337L4.01187 10.4239C4.14055 10.3338 4.24494 10.3085 4.37351 10.2772C4.40064 10.2707 4.42884 10.2638 4.45858 10.256C4.53288 9.67201 4.88599 9.5031 5.27335 9.31781C5.44695 9.23477 5.62742 9.14844 5.79275 9.01999C5.85923 8.8357 5.93194 8.667 5.99908 8.51123C6.07284 8.34011 6.13988 8.18457 6.18455 8.04107L6.36931 7.91924L6.31144 7.92349L5.23994 7.26474L5.28001 7.15283C5.85212 7.31787 6.28918 7.51337 6.76111 7.7287C6.88858 7.65037 6.98922 7.55184 7.08986 7.45331C7.22766 7.31841 7.36546 7.18351 7.57215 7.10041L7.47198 6.97149C7.45334 6.96032 7.4347 6.94915 7.41606 6.93797C6.93378 6.64883 6.45096 6.35936 5.97158 6.04429L6.11554 6.03366C6.96814 6.24545 7.3629 6.49691 7.93575 6.91129L8.14797 6.78733L6.75591 5.6625L6.81973 5.60371L6.82567 5.54916L7.912 6.06979L8.43143 6.55004C8.45004 6.55365 8.66662 6.43801 8.93004 6.29736C9.28641 6.10709 9.72851 5.87105 9.8821 5.82258C10.4102 5.66098 10.9608 5.57645 11.5153 5.57183C12.0422 5.56191 12.5542 5.60654 13.0439 5.654C13.0705 5.60397 13.1102 5.54042 13.1555 5.46787C13.3547 5.14902 13.6623 4.65648 13.4387 4.37546C13.1767 3.75709 11.968 4.53058 11.5138 4.85358C11.453 4.8975 11.4055 4.93292 11.3758 4.95558C11.4141 4.8927 11.4605 4.83464 11.5138 4.78275C11.9739 4.31738 13.2302 3.64163 13.5982 4.22813C13.8298 4.59887 13.5384 5.04577 13.3039 5.40545C13.2332 5.51375 13.1678 5.61414 13.1233 5.70216C13.4624 5.76237 13.7281 5.92387 13.9692 6.07758L14.2579 5.78575L14.367 5.8325C14.3656 5.88168 14.3505 5.92963 14.3232 5.97133C14.3156 5.8956 14.3131 5.89148 14.2975 5.86639C14.2931 5.85933 14.2877 5.85061 14.2809 5.83816L14.1889 5.89908L14.0553 6.07191L14.0724 6.17958C14.2278 6.20384 14.2557 6.26002 14.3086 6.36673C14.3221 6.39397 14.3373 6.42452 14.3566 6.45866L14.4174 6.4275C14.4561 6.31465 14.5039 6.20683 14.5515 6.09934C14.6789 5.81144 14.8053 5.52591 14.755 5.1525C14.6839 5.10738 14.6163 5.08609 14.5364 5.06094C14.4947 5.04779 14.4496 5.03359 14.3989 5.01437L14.6296 4.99808L14.8448 5.1185C14.9636 5.64762 14.7105 6.20225 14.4538 6.6145L14.4998 6.72004C14.8945 6.46645 15.5935 5.66604 15.7479 5.21767L15.5089 5.31683L15.7286 5.13833L15.8696 5.15533C15.807 5.51902 15.5197 5.80049 15.2558 6.05905C15.1507 6.16206 15.0493 6.26143 14.9673 6.36091C15.3479 6.14678 15.7075 5.88856 16.071 5.62757C16.3736 5.41029 16.6789 5.1911 17.0012 4.99383C17.0455 4.96668 17.1076 4.92412 17.1778 4.87592C17.3989 4.72422 17.7013 4.51665 17.7914 4.5575L17.8367 4.66304L17.7796 4.66729L14.5762 7.06854L14.5347 7.45174L14.9814 7.55658C15.3478 7.35181 15.7152 7.14748 16.0825 6.94324C16.1815 6.8882 16.2804 6.83316 16.3794 6.77812L16.3994 6.85816L15.1706 7.65149L15.2277 7.64724C15.3472 7.76553 15.5824 7.8647 15.8035 7.87887L16.8387 7.28954L16.7719 7.37524L16.2124 7.79599C16.326 7.73078 16.4953 7.68682 16.6681 7.64195C16.8632 7.59129 17.0628 7.53946 17.1919 7.45458L17.0902 7.59766C17.2688 7.6036 17.3211 7.6514 17.3973 7.72099C17.4119 7.73437 17.4274 7.74856 17.4449 7.76341L17.4353 7.84558L17.3722 7.90437C17.2973 7.89162 17.2223 7.87887 17.1503 7.83849L17.3173 7.88099L17.3182 7.88051C17.3379 7.87004 17.3584 7.85918 17.3811 7.8222C17.3722 7.80566 17.3631 7.78921 17.3541 7.7728C17.3391 7.74563 17.3242 7.71853 17.3099 7.69116C16.8134 7.59766 16.4261 7.70674 15.9898 8.00141L16.012 8.05453L16.3949 8.21816C16.5856 8.04107 16.7763 7.8647 16.9633 7.71524L16.392 8.24578L16.4402 8.3237C16.7398 8.43314 16.9284 8.65485 17.1157 8.87501C17.223 9.00109 17.3298 9.12667 17.4568 9.23036C17.7064 9.11965 17.9005 9.15578 18.0689 9.18713C18.1903 9.20974 18.2984 9.22987 18.4044 9.1907L18.6811 9.00866C18.8288 9.05824 18.9468 9.11916 19.0292 9.22824C18.9731 9.20736 18.9317 9.18291 18.8917 9.15934C18.8205 9.11733 18.754 9.07808 18.6181 9.06674C18.5476 9.13161 18.4966 9.2117 18.4586 9.30231L18.3547 9.30545C18.371 9.36487 18.3858 9.42429 18.4006 9.48372L18.4007 9.48395L18.4008 9.48363C18.3675 9.62275 18.3507 9.776 18.3336 9.93148C18.3119 10.1282 18.2899 10.3285 18.2337 10.5082C17.9643 11.3653 17.3076 11.9334 16.4231 12.1855C16.4272 12.2189 16.4287 12.2525 16.4276 12.2861C16.4267 12.3395 16.4223 12.3989 16.4178 12.4582C16.4067 12.6072 16.3955 12.7559 16.4417 12.8096C17.0568 13.01 18.9416 12.6665 19.6183 12.5036L19.3067 12.4717C19.3119 12.4256 19.3171 12.3803 19.3512 12.3321L19.7445 12.386L19.8454 12.5149C19.4051 13.0124 17.2886 13.049 16.3671 13.065C16.3334 13.0656 16.3014 13.0661 16.271 13.0667L15.9898 13.5484L16.0484 13.5441L17.0924 13.661C18.2708 13.8111 19.7163 13.724 21 13.4669C20.5221 13.8536 19.0217 14.12 18.1877 14.1001C18.2315 14.217 18.2278 14.2815 18.1558 14.4012C17.6738 14.5198 17.1252 14.3391 16.5996 14.1659C16.4125 14.1043 16.2283 14.0436 16.0511 13.9977C16.0635 14.0152 16.0757 14.0343 16.0877 14.0548C16.0674 14.0328 16.047 14.0117 16.0268 13.9915C15.9018 13.96 15.7804 13.9363 15.664 13.9252L15.7382 13.9606C15.6911 13.9546 15.643 13.9592 15.5981 13.974C15.5531 13.9889 15.5124 14.0137 15.4793 14.0463L15.3294 14.1115C15.7954 14.6406 16.2621 15.1697 16.7296 15.6981L16.6628 15.7846L16.576 15.7909L15.1068 14.3176L15.0459 14.3488C14.9216 14.643 14.7138 14.8552 14.5063 15.0672C14.4316 15.1436 14.3568 15.2199 14.2861 15.3001C14.9116 15.0748 15.5609 15.6344 15.267 16.2634C15.4822 15.5048 14.4597 15.0507 14.0353 15.5076C14.0406 15.5156 14.0449 15.5221 14.0484 15.5276C14.067 15.5562 14.067 15.5562 14.1124 15.5841C14.1674 15.6134 14.2303 15.6162 14.2878 15.6188C14.3552 15.6217 14.4151 15.6244 14.4464 15.6691L14.1325 15.6641C14.1369 15.6805 14.1414 15.6968 14.1457 15.713C14.0934 15.6226 14.0417 15.553 14.0011 15.5161C13.8578 15.5777 13.7204 15.6467 13.582 15.7162C13.2094 15.9033 12.8298 16.094 12.3093 16.1529L12.3909 16.2336L12.8161 17.0362C12.9552 17.0479 13.0805 17.0707 13.2067 17.0937C13.4171 17.1321 13.63 17.1709 13.9143 17.1594C13.953 17.1366 13.9888 17.1192 14.0222 17.103C14.1059 17.0622 14.1749 17.0286 14.2386 16.9349C14.264 16.9088 14.2858 16.8804 14.3042 16.8501C14.2161 17.2481 13.8086 17.3998 12.7567 17.2834C13.0127 18.0498 12.7308 19.4934 11.9628 19.8681C12.7144 19.0053 12.756 18.37 12.6477 17.2366L11.8225 16.942L11.4938 17.0737C11.036 17.1552 10.613 16.8513 10.5195 16.5715L10.4587 16.6034L9.62388 17.7225L9.54077 18.4897C9.48719 18.69 9.44575 18.9429 9.40172 19.2115C9.28537 19.9215 9.15095 20.7418 8.72676 20.9936L8.64068 21C9.16159 20.6692 9.36862 18.8113 9.45172 17.9804C9.1434 18.2234 8.87175 18.5462 8.598 18.8714C8.20305 19.3407 7.80372 19.8152 7.2835 20.0629C7.56464 19.7131 7.85826 19.4387 8.13855 19.1768C8.82441 18.5359 9.43037 17.9696 9.57787 16.5566C9.31936 16.769 8.96566 17.1718 8.57348 17.6183C7.80168 18.4971 6.88083 19.5456 6.24317 19.6471C6.19239 19.6127 6.14863 19.5697 6.11406 19.5203C6.15338 19.1814 6.31571 18.9528 6.47742 18.7251C6.55369 18.6177 6.62982 18.5104 6.69284 18.3919L6.74478 18.4429L6.80266 18.4387C6.75496 18.5841 6.68504 18.7247 6.61161 18.8723C6.53199 19.0324 6.44823 19.2008 6.38416 19.3928C7.19297 18.9388 8.73121 17.2388 9.33003 16.466L8.85216 16.3902C8.7928 16.8598 8.40175 17.4775 8.08267 17.6956L8.03073 17.6446C8.1046 17.4806 8.20431 17.3481 8.3033 17.2165C8.43004 17.048 8.55562 16.881 8.62436 16.6516C8.57468 16.6902 8.4975 16.7652 8.40511 16.8551C8.09451 17.157 7.6119 17.6262 7.42375 17.4428L7.4794 17.1948L7.54099 17.163L7.65229 17.1821L7.61148 17.294C7.84565 17.1427 8.03572 16.9528 8.22513 16.7636C8.38144 16.6075 8.53729 16.4519 8.71711 16.3186L8.69485 16.2662L8.32628 16.084C8.33165 16.0723 8.33745 16.059 8.34387 16.0438L8.05744 16.0013L8.07451 15.8419C8.09974 15.8378 8.11971 15.8385 8.13362 15.8391C8.15981 15.8401 8.16458 15.8402 8.14278 15.8051C8.06783 15.713 8.04557 15.6988 7.86303 15.6988L7.58773 16.1621C7.62261 16.1703 7.65532 16.1786 7.6871 16.1867C7.82634 16.2221 7.94783 16.253 8.15636 16.2465C8.13249 16.2689 8.10221 16.2892 8.06115 16.3108C7.85994 16.3782 7.70131 16.3435 7.5436 16.309C7.49177 16.2977 7.44004 16.2864 7.38692 16.2787C7.3911 16.2721 7.39522 16.2653 7.39926 16.2584L6.98223 16.0983C6.0124 16.9661 5.1598 15.6273 5.71707 15.2165L5.69406 15.1641L5.42619 14.9671L5.42025 15.0217C5.00917 15.7668 5.97975 16.8485 6.67355 16.7932C6.71672 16.7702 6.75956 16.7483 6.80175 16.7267C6.98137 16.6347 7.14905 16.5488 7.27931 16.4152C6.06571 17.9519 4.33285 14.9641 5.82763 14.2383C5.75956 13.8582 5.48984 13.617 5.21462 13.3709C4.91078 13.0991 4.60022 12.8214 4.54688 12.3442L4.54169 12.2875C4.5185 11.8764 4.76671 11.7153 5.01216 11.5561C5.1752 11.4503 5.33702 11.3453 5.41728 11.1684C5.614 10.7334 5.6388 10.3 5.66566 9.83066C5.67599 9.65027 5.68661 9.46457 5.70742 9.27145L5.6206 9.27782C5.17093 9.46411 4.66635 9.74745 4.5966 10.3014C4.9032 10.2934 5.157 10.4295 5.25592 10.664C5.13285 10.5269 5.01915 10.421 4.75539 10.3984C4.77246 10.6463 4.96019 10.8694 5.16054 10.9325L5.28648 10.9436L5.17241 11.0487C5.0458 11.0279 4.67216 10.8886 4.3786 10.7538C4.43975 10.7586 4.50371 10.7614 4.56691 10.7632ZM5.2993 10.9317C5.3049 10.8325 5.28915 10.7427 5.25592 10.664C5.26677 10.676 5.2777 10.6884 5.2888 10.7009C5.29809 10.7114 5.30751 10.722 5.31711 10.7327C5.3176 10.756 5.31816 10.7793 5.31873 10.8027C5.3199 10.8505 5.32106 10.8986 5.32156 10.9467L5.28648 10.9436L5.2993 10.9317ZM4.3786 10.7538C4.19567 10.7394 4.03782 10.7068 4 10.6293C4 10.6244 4.00148 10.6194 4.00297 10.6144C4.02903 10.6079 4.0544 10.6025 4.07957 10.5981C4.15045 10.6435 4.25774 10.6983 4.3786 10.7538ZM7.27931 16.4152C7.31887 16.3746 7.35498 16.3296 7.38692 16.2787C7.38411 16.2783 7.3813 16.2779 7.37848 16.2776C7.34587 16.327 7.31279 16.3728 7.27931 16.4152ZM8.15636 16.2465C8.16859 16.2461 8.18112 16.2456 8.19398 16.245C8.21412 16.2247 8.22997 16.2103 8.24319 16.1983C8.27918 16.1656 8.2957 16.1505 8.32628 16.084L8.26076 16.0516C8.22773 16.1452 8.20582 16.2002 8.15636 16.2465ZM14.1457 15.713C14.318 16.0106 14.4967 16.5331 14.3042 16.8501C14.3637 16.5813 14.2774 16.2 14.1457 15.713ZM16.3823 14.9686C16.6005 14.5188 16.3519 14.2383 16.0877 14.0548C16.2799 14.2616 16.4239 14.6583 16.3823 14.9686ZM18.4008 9.48363L18.4956 9.3012L18.4586 9.30231C18.4348 9.35901 18.4161 9.41983 18.4008 9.48363ZM5.84173 11.3065L5.78088 11.1294C5.76456 11.1308 5.74972 11.1308 5.73339 11.1308L5.69926 11.3122L5.84173 11.3065ZM6.23147 12.4523C6.24279 12.4425 6.25435 12.4325 6.26617 12.4221V12.4214L6.22684 12.3506L5.85434 11.6776L5.70816 11.6876L5.69926 11.7711C5.71189 11.8444 5.72125 11.9288 5.73106 12.0174C5.74316 12.1265 5.75595 12.2419 5.77643 12.3506C5.80982 12.5312 5.86399 12.6927 5.96787 12.7741C6.0358 12.622 6.122 12.5472 6.23147 12.4523ZM6.13483 10.4005C6.11524 10.5213 6.0962 10.6422 6.0777 10.7632C6.11181 10.6414 6.14741 10.5197 6.18301 10.3979L6.18306 10.3977L6.13483 10.4005ZM6.64387 9.29128L5.97604 9.11845V9.11916L5.9471 9.14961L5.88848 10.0322C6.00886 9.7228 6.21006 9.59612 6.4403 9.45115C6.50525 9.41027 6.5725 9.36792 6.6409 9.31961C6.64179 9.31016 6.64278 9.30071 6.64387 9.29128ZM6.68259 9.01961C6.61215 8.78098 6.55814 8.59801 6.59935 8.2047L6.60009 8.20399L6.46133 8.31874C6.42029 8.39977 6.37548 8.47507 6.33065 8.55039C6.23363 8.71341 6.13657 8.87649 6.0777 9.09791L6.09996 9.1227C6.40716 9.10711 6.61938 9.20628 6.81973 9.3012C6.85832 9.18149 6.81082 9.13261 6.6921 9.05186C6.6889 9.04099 6.68573 9.03024 6.68259 9.01961ZM7.58848 7.65574L7.55954 7.65787L7.35103 7.72303C6.9251 8.0177 6.91768 8.76357 7.29834 8.9357C7.39801 8.76383 7.4502 8.4305 7.49732 8.12953C7.52633 7.94426 7.55342 7.77126 7.58848 7.65574ZM7.5254 10.2355L7.20484 9.90328L7.58848 10.1484C7.57996 10.1274 7.57148 10.1066 7.56301 10.0857C7.53534 10.0176 7.5078 9.94982 7.4794 9.88203L7.18258 9.84945C7.16283 9.93948 7.11559 10.0613 7.06201 10.1995C6.92843 10.544 6.75547 10.9901 6.87093 11.298L7.06015 11.3122C7.11813 11.0659 7.22144 10.8693 7.32277 10.6764C7.39779 10.5335 7.47174 10.3928 7.5254 10.2355ZM8.11716 8.21265C8.08884 8.05143 8.06054 7.89033 8.08193 7.65503L7.86526 7.67062C7.71678 8.0159 7.62348 8.3805 7.58848 8.75224C7.65924 8.71793 7.73011 8.68373 7.801 8.64951C7.91893 8.59259 8.03693 8.53563 8.15465 8.47812C8.14697 8.38237 8.13206 8.29749 8.11716 8.21265ZM8.34387 7.10679L8.30157 7.10962L8.25111 7.18116L8.15465 7.28954L8.28005 7.28174L8.34387 7.10679ZM7.77695 9.11774L8.34387 8.78482L8.33422 8.59711L8.28228 8.5702C8.05744 8.64528 7.78883 8.91657 7.77695 9.11774ZM8.6199 8.08145C8.6533 7.89587 8.68743 7.71099 8.7223 7.52541L8.35129 7.47299C8.32903 7.72941 8.355 8.06658 8.4574 8.20399L8.51379 8.1452L8.6199 8.08145ZM9.09784 7.12076C9.09853 7.11671 9.09926 7.11245 9.09926 7.10749H8.77276C8.7685 7.12255 8.76418 7.1376 8.75987 7.15265C8.74693 7.19781 8.73399 7.24296 8.7223 7.28812L8.73127 7.28843C8.84465 7.29242 8.85829 7.2929 8.95234 7.25837L9.09703 7.12591C9.09725 7.12421 9.09754 7.12251 9.09784 7.12076ZM9.30851 6.74129L9.4777 6.3765L9.47695 6.37579C9.2504 6.42343 9.07428 6.50708 8.89766 6.59096C8.84057 6.61807 8.78344 6.64521 8.72453 6.67116L8.7223 6.70091L9.30851 6.74129ZM9.23431 7.29024L9.17198 7.32566V7.32495L9.09926 7.43758L9.28848 7.47299L9.23431 7.29024ZM9.31844 7.93606C9.43844 7.92073 9.56161 7.90499 9.66617 7.86612L9.59939 7.87037C9.55525 7.85374 9.51107 7.83708 9.46686 7.82041C9.3208 7.76533 9.17441 7.71012 9.02802 7.65574L8.91078 7.80237C8.92405 7.87554 8.93715 7.94873 8.95011 8.02195C9.04657 7.9708 9.1804 7.9537 9.31844 7.93606ZM8.92636 8.20399L9.18311 8.19478L9.37901 8.17212L9.66617 8.02124C9.59695 8.02862 9.52577 8.03454 9.45512 8.04041C9.24785 8.05764 9.04526 8.07448 8.91078 8.12678C8.91229 8.13438 8.91373 8.14192 8.91517 8.14942C8.91868 8.16778 8.92215 8.18588 8.92636 8.20399ZM9.28996 8.5702C9.43169 8.42853 9.63872 8.24649 9.85465 8.19478C9.83549 8.08821 9.82751 8.08157 9.77625 8.03891C9.76993 8.03366 9.76295 8.02785 9.75522 8.02124C9.59568 8.11262 9.26251 8.40445 9.28996 8.5702ZM10.2301 6.03933L10.2331 6.011L9.66914 6.16541L9.66617 6.19375L10.0031 6.17037L10.2301 6.03933ZM9.91245 6.53817L9.92737 6.55925L10.6108 6.41545C10.5785 6.41229 10.5423 6.40783 10.5035 6.40305C10.4607 6.39777 10.4147 6.39211 10.3674 6.38736C10.7414 6.34412 11.1629 6.43074 11.3061 6.56279L11.3654 6.55783C11.2195 6.68792 11.0338 6.76064 10.8495 6.83274C10.6636 6.9055 10.4793 6.97764 10.3392 7.10749C10.3197 7.09515 10.3006 7.0832 10.2818 7.07147C10.0889 6.95116 9.93172 6.85315 9.85465 6.58404C9.87259 6.56768 9.8919 6.5524 9.91245 6.53817ZM9.91245 6.53817L9.85465 6.45654C9.97001 6.36413 10.1793 6.36849 10.3674 6.38736C10.1951 6.4073 10.0328 6.45481 9.91245 6.53817ZM12.4329 6.24257C12.2143 6.11473 11.929 6.04539 11.6177 6.02091V6.02162C11.2173 5.99554 10.815 6.0273 10.4245 6.11583L10.4216 6.1392L11.6177 6.30141C11.672 6.30885 11.7263 6.31634 11.7807 6.32384C11.8751 6.33686 11.9697 6.3499 12.0642 6.36266C11.9024 6.38643 11.7357 6.37563 11.5554 6.33895C11.7978 6.55877 12.1837 6.64379 12.564 6.72759C12.81 6.78178 13.0536 6.83546 13.2546 6.92474C13.1685 6.67993 12.9712 6.53757 12.777 6.39742C12.6869 6.33239 12.5974 6.26784 12.52 6.19375C12.4909 6.21142 12.4619 6.22767 12.4329 6.24257ZM12.4329 6.24257C12.3102 6.30567 12.1887 6.34438 12.0642 6.36266C12.0969 6.36707 12.1297 6.37145 12.1624 6.37579L12.4644 6.29079L12.4993 6.24404L12.4414 6.24758C12.4386 6.2459 12.4357 6.24423 12.4329 6.24257ZM12.8072 6.011L12.874 5.92458L12.877 5.89696L12.31 5.82825C12.453 5.93501 12.6261 5.99863 12.8072 6.011ZM14.0368 6.54366L13.8802 6.60033H13.8794C13.9255 6.54245 13.9502 6.52784 13.9553 6.50819C13.9592 6.49272 13.951 6.47414 13.9314 6.42891C13.7564 6.37409 13.5905 6.29869 13.4209 6.22162C13.2575 6.14733 13.0906 6.07149 12.9089 6.011L12.6885 6.096L12.7122 6.14204C13.2576 6.2922 13.5685 6.71791 13.8149 7.10749L13.9054 7.10183C13.9368 7.06243 13.9707 7.02469 14.004 6.98765C14.0958 6.88548 14.1829 6.78859 14.1993 6.67683L14.0368 6.54366ZM14.2928 7.42624L14.3358 7.46662L14.3551 7.29095L14.1993 7.43262L14.2928 7.42624ZM14.7172 10.3977C14.8233 10.001 14.758 9.69503 14.5027 9.48395C14.5007 9.495 14.4994 9.50638 14.4981 9.51786C14.4974 9.52331 14.4968 9.52877 14.4961 9.53424C14.4815 9.5552 14.4672 9.57616 14.4529 9.59713C14.4315 9.62858 14.41 9.66003 14.3877 9.69149C14.4572 9.83934 14.5262 9.98748 14.5951 10.1355C14.6358 10.223 14.6764 10.3104 14.7172 10.3977ZM14.574 7.87462L14.577 7.84062L14.5161 7.84628C14.4618 7.85353 14.4506 7.8376 14.4419 7.83881C14.4335 7.83997 14.4272 7.85675 14.3877 7.9242L14.4397 8.02124L14.574 7.87462ZM15.3323 8.05028L14.7343 7.83849L14.5821 7.93553L14.577 7.99291L15.1758 8.20399C15.2262 8.17212 15.2767 8.14024 15.3271 8.10695C15.3294 8.08853 15.3316 8.06941 15.3323 8.05028ZM15.5676 8.35982L15.8993 8.5702C15.8903 8.53974 15.8812 8.50923 15.8721 8.47868C15.8468 8.39345 15.8214 8.30793 15.7969 8.22241C15.723 8.20866 15.6899 8.20058 15.659 8.20562C15.6261 8.21096 15.5957 8.23107 15.5216 8.27482L15.5676 8.35982ZM16.021 8.5702L16.0877 8.50078L16.0722 8.45899L15.8993 8.38674L15.9 8.38943C15.927 8.48121 15.9416 8.53091 16.021 8.5702ZM15.8993 7.98087L15.9467 7.97732C15.9824 7.93128 16.0195 7.88524 16.0566 7.8392C16.0031 7.88595 15.9512 7.93341 15.8993 7.98087ZM16.7511 8.9357L16.8439 8.89674L16.6064 8.60561C16.5247 8.56696 16.4689 8.51769 16.4215 8.47572C16.3253 8.39079 16.263 8.33573 16.0877 8.45899C16.1403 8.52755 16.193 8.59603 16.2458 8.66441C16.4141 8.75511 16.5825 8.84554 16.7511 8.9357ZM16.8439 8.99236L17.0323 9.05824L16.9574 8.9357L16.8439 8.99236ZM16.9515 9.43999C16.8677 9.45516 16.8566 9.45717 16.8023 9.35291L17.0145 9.30545L16.9381 9.18786C16.8693 9.1781 16.8164 9.16336 16.7684 9.14996C16.677 9.12448 16.6029 9.10381 16.4691 9.1312L16.4654 9.16236L16.7422 9.6667L17.0323 9.42728C16.9993 9.43133 16.973 9.4361 16.9515 9.43999ZM17.2216 9.48395L16.8439 9.68086L16.9307 9.84945C16.9478 9.83196 16.9645 9.81524 16.9809 9.79893C17.0757 9.70417 17.157 9.62293 17.2216 9.48395ZM17.573 10.3994C17.5816 10.3929 17.5903 10.386 17.5993 10.3786L17.2772 9.6667L17.2104 9.69715L16.8439 10.1115L16.857 10.7509L16.8364 10.7611L16.4654 11.4949L16.5604 11.4885C16.6124 11.4656 16.6634 11.4436 16.713 11.4222C17.2311 11.1991 17.6074 11.037 17.5993 10.3977L17.573 10.3994ZM17.3987 10.4832L17.5674 10.3998L17.573 10.3994C17.5179 10.4417 17.4696 10.4668 17.3987 10.4832ZM17.3987 10.4832L17.3333 10.5155L17.2364 10.5054C17.3035 10.5 17.3553 10.4932 17.3987 10.4832ZM17.3333 10.5155L17.3922 10.5217L17.3893 10.5479L16.8572 10.7632L16.857 10.7509L17.3333 10.5155ZM17.41 9.3784C18.4533 9.10074 18.2515 9.62915 17.7863 10.0322C17.6601 9.81474 17.5347 9.59657 17.41 9.3784ZM16.5367 12.0431C17.8961 11.3022 17.9703 11.208 18.3547 9.48395L18.296 9.5144L17.8515 10.0598C17.9042 11.0635 17.4004 11.5069 16.5137 11.7478L16.4654 11.9404L16.4654 11.9405C16.4899 11.9745 16.5144 12.0084 16.5367 12.0431ZM16.1011 10.97L16.0877 11.1606C16.1115 11.2569 16.1241 11.2732 16.1879 11.3122C16.2621 11.1386 16.2992 10.9792 16.2621 10.7632C16.2562 10.7639 16.2502 10.7653 16.2436 10.7653L16.113 10.8071L16.1011 10.97ZM15.3353 12.7281L15.3323 12.76L15.946 12.7741C15.9565 12.7448 15.9669 12.7163 15.9771 12.6886C16.0449 12.5039 16.1015 12.3493 16.0848 12.1621C16.0825 12.1331 16.0781 12.1026 16.0714 12.0715L15.6351 12.0431L15.5832 12.1621L15.4472 12.4725L15.4993 12.3017L15.5216 12.2259L15.5045 12.2273L15.3539 12.3017L15.3346 12.3109L15.3323 12.3336L15.4045 12.5701L15.3353 12.7281ZM15.4045 12.5701L15.411 12.5914L15.4472 12.4725L15.4045 12.5701ZM15.5268 13.2105L15.5216 13.4938L15.6811 13.5059C15.7531 13.3897 15.8258 13.2742 15.8993 13.1588L15.8533 13.1623L15.5342 13.1396L15.5268 13.2105ZM14.9546 13.1396L15.04 13.2211C15.012 13.1814 15.0112 13.1746 15.0074 13.1712C15.0036 13.1676 14.9966 13.1675 14.9546 13.1396ZM14.8691 12.959C14.7542 12.9552 14.6627 12.9522 14.577 13.0036L14.6141 13.1241C14.6425 13.127 14.6662 13.13 14.6868 13.1326C14.7717 13.1435 14.8041 13.1477 14.9086 13.1078L14.9554 12.9611C14.9251 12.9609 14.8965 12.9599 14.8691 12.959ZM14.9546 14.018L14.8085 13.6879C14.6244 13.7339 14.5146 14.1044 14.6155 14.2369C14.6849 14.1915 14.7546 14.1468 14.8242 14.102C14.8677 14.074 14.9112 14.0461 14.9546 14.018ZM14.3877 12.5439L14.4352 12.5404L14.4501 12.4086L14.3877 12.5439ZM14.9546 12.5765L14.9791 12.5914L15.1439 12.5843L15.0652 12.4086L15.0378 12.4094L14.9546 12.5765ZM16.277 10.1533L16.2873 10.2149L16.3556 10.2107C16.382 10.1932 16.4088 10.1764 16.4357 10.1596C16.4459 10.1533 16.456 10.147 16.4662 10.1406L16.4439 10.0329C16.3586 10.0591 16.3267 10.0952 16.277 10.1533ZM16.1929 10.7268C16.2241 10.7076 16.2557 10.6881 16.277 10.6612L16.0922 9.86875L16.2102 10.0322L16.4647 9.8034L16.4654 9.8027C16.4227 9.71106 16.3687 9.69695 16.3098 9.68158C16.2653 9.66998 16.2181 9.65765 16.1708 9.61074C16.1197 9.55997 16.1389 9.50941 16.1593 9.45567C16.1757 9.4127 16.1928 9.36769 16.1753 9.3189C16.0543 8.98174 15.4533 8.71187 15.1097 8.5702L14.9539 8.68637L15.6633 9.27428L16.0885 9.86361L16.1389 10.7632C16.1552 10.7501 16.174 10.7385 16.1929 10.7268ZM16.0885 9.86361L16.0877 9.84945L16.0922 9.86875L16.0885 9.86361ZM16.0877 12.0424C16.0729 11.8816 16.0551 11.82 15.9304 11.8866L15.7167 11.9858L15.71 12.0424H16.0877ZM15.8302 11.3122L15.7449 11.3816L15.71 11.4772L15.8674 11.4949L15.8993 11.4297L15.8302 11.3122ZM15.5134 12.0431L15.71 11.8661L15.4244 11.8604C15.4185 11.871 15.4127 11.8815 15.4069 11.8921C15.3821 11.937 15.3571 11.9823 15.3331 12.0276L15.385 12.0226L15.5134 12.0431ZM14.9584 11.7068C14.9523 11.7193 14.9477 11.7286 14.9977 11.7619L14.9606 11.6769C14.966 11.6914 14.9619 11.6996 14.9584 11.7068ZM14.9546 10.63L15.5928 10.9459C15.9282 10.2355 15.4867 9.4712 14.9947 9.3012C15.0305 9.65902 14.9996 10.0511 14.9712 10.4132C14.9654 10.4869 14.9597 10.5593 14.9546 10.63ZM15.2773 11.0374C15.2425 11.0081 15.2063 10.9776 15.1439 10.9459C15.1562 11.0164 15.1532 11.0825 15.1499 11.1547C15.1456 11.2475 15.1409 11.3504 15.1676 11.4857L15.3991 11.4942C15.4128 11.4725 15.4257 11.4529 15.4376 11.4347C15.5049 11.3323 15.5418 11.2762 15.5097 11.1613C15.379 11.1229 15.3298 11.0815 15.2773 11.0374ZM15.1474 12.073C15.1411 12.0856 15.1365 12.0948 15.1869 12.1281L15.1498 12.0431C15.1552 12.0576 15.1511 12.0659 15.1474 12.073ZM16.4677 10.3347L16.4654 10.3687C16.4705 10.4026 16.4752 10.441 16.4802 10.4816C16.4944 10.5963 16.5106 10.7281 16.5418 10.8247C16.5167 10.8651 16.4911 10.9055 16.4655 10.9459L16.4654 10.9459L16.5129 10.9431L16.5491 10.8457C16.5657 10.891 16.5863 10.9265 16.6124 10.9459C16.6569 10.7136 16.668 10.4019 16.6383 10.2149L16.4677 10.3347ZM16.5491 10.8457L16.5797 10.7632C16.5672 10.7837 16.5546 10.8042 16.5418 10.8247C16.5441 10.8319 16.5466 10.8389 16.5491 10.8457ZM16.4535 9.05118C16.4513 9.04461 16.449 9.03801 16.4469 9.03132L16.2762 8.9357L16.4179 9.11845L16.4647 9.08586C16.4614 9.07414 16.4575 9.0627 16.4535 9.05118ZM16.2814 9.30403L16.2762 9.33591C16.3378 9.42232 16.3556 9.43436 16.4654 9.48395L16.323 9.3012C16.3091 9.30203 16.2952 9.30297 16.2814 9.30403ZM14.9287 10.9679L14.8708 10.9459L14.8003 11.026C14.7246 11.1443 14.7825 11.4163 14.8656 11.4751L14.9539 11.4949L14.9287 10.9679ZM14.5131 11.8604L14.4523 11.8625C14.4315 11.9226 14.4093 11.9828 14.3871 12.0429L14.387 12.0431L14.4797 12.0389L14.5762 12.0035L14.5131 11.8604ZM14.1985 14.5181L14.2801 14.7851L14.5732 14.4444C14.5742 14.4361 14.5754 14.4278 14.577 14.4196L14.5473 14.421C14.4308 14.4543 14.315 14.4862 14.1985 14.5181ZM14.0095 14.0534L14.082 14.0463L14.1985 13.9372L14.1837 13.8905L14.1317 13.8706C14.1266 13.8754 14.1218 13.88 14.1172 13.8843C14.0648 13.9332 14.0415 13.955 14.0095 14.0534ZM14.0093 14.1434L14.0983 14.2369L14.1495 14.2333L14.1985 14.0541L14.0093 14.1434ZM13.8368 15.0168C13.8578 15.0335 13.8782 15.0498 13.8995 15.0656L13.9752 15.1506L14.1985 15.0047L14.1703 14.7851L13.8787 15.0004L13.8208 15.004C13.8262 15.0083 13.8315 15.0125 13.8368 15.0168ZM12.132 16.2471L11.9613 16.2577C12.0117 16.4015 11.988 16.5871 11.9316 16.7698L12.6877 16.9788C12.5646 16.7075 12.3894 16.4121 12.132 16.2471ZM12.27 15.3333L11.4181 15.5678L11.3662 15.8044C11.4685 15.8391 11.551 15.8791 11.6295 15.9173C11.8138 16.0068 11.9762 16.0857 12.3234 16.0594C12.6023 15.9245 12.8798 15.8182 13.1444 15.7168C13.3133 15.652 13.477 15.5893 13.6323 15.5225L13.6086 15.458L12.27 15.3333ZM11.3655 16.4285L11.7231 16.6126C11.7573 16.4842 11.7417 16.4092 11.7198 16.3038C11.716 16.2859 11.7121 16.2671 11.7083 16.2471L11.3825 16.2705L11.3655 16.4285ZM11.1139 16.6487L10.987 16.7153L11.4871 16.7953L11.5539 16.733C11.5043 16.7177 11.4592 16.6955 11.4162 16.6743C11.3138 16.6239 11.2236 16.5794 11.1139 16.6487ZM11.2311 16.3767C11.2721 16.3947 11.3131 16.4124 11.3543 16.4298L11.3654 16.2584L11.1762 16.2471L11.2311 16.3767ZM10.9877 16.585L10.7985 16.4298L10.9558 16.7953C10.9637 16.7527 10.9698 16.7258 10.9746 16.7051C10.9839 16.6649 10.9877 16.6481 10.9877 16.585ZM10.8255 15.7009C10.6261 15.7025 10.4491 15.704 10.3088 15.7449L10.2323 15.8341L10.7406 15.8816L10.9877 15.6988C10.9323 15.7 10.8781 15.7005 10.8255 15.7009ZM11.9323 7.26829L11.7839 7.10749L11.7565 7.10962C11.3566 7.12522 10.9652 7.22538 10.6108 7.40287L10.6575 7.47299L10.6857 7.47158C10.9017 7.36462 11.2103 7.31999 11.5227 7.29449C11.6615 7.28316 11.8003 7.27537 11.9323 7.26829ZM13.389 7.56508L12.6885 7.47299C12.7305 7.54784 12.7566 7.64277 12.7835 7.74015C12.8103 7.83722 12.8377 7.93673 12.8821 8.02124L13.4439 7.56083L13.389 7.56508ZM13.5879 8.25489L13.4439 8.23374L13.6323 8.20399L13.5879 8.25489ZM13.6168 7.65574L13.4439 7.81795L13.5069 7.81228L13.6323 7.83849L13.6168 7.65574ZM13.7036 13.8706L13.7867 13.8671L13.8208 13.6886L13.6873 13.7382L13.6323 13.8069L13.7036 13.8706ZM13.7058 14.1249C13.6821 14.1504 13.6583 14.1759 13.6361 14.2014L13.6323 14.2369L13.8216 14.2206L13.7117 14.0541L13.7058 14.1249ZM13.4439 14.6505L13.5611 14.7851L13.6412 14.7794L13.8216 14.6024L13.4439 14.6505ZM13.2546 15.2901L13.6323 15.3333L13.5218 15.1506L13.2546 15.2901ZM13.4439 14.8871L13.3674 14.8177L13.2851 14.7851L12.877 14.9678L13.1701 14.9537L13.4439 14.8871ZM12.877 7.10749C12.7642 6.98354 12.5312 6.93041 12.3108 6.92474L12.382 7.00479C12.4354 7.09141 12.6115 7.09698 12.7589 7.10165C12.802 7.10301 12.8426 7.10429 12.877 7.10749ZM12.6284 8.02124C12.6477 7.85195 12.6098 7.7457 12.5022 7.65574C12.5028 7.68034 12.5018 7.7061 12.5009 7.73213C12.4965 7.85148 12.4919 7.97646 12.6284 8.02124ZM12.6944 8.77703L12.6877 8.8082C12.6917 8.81101 12.6956 8.81382 12.6995 8.81663C12.7713 8.86813 12.8393 8.91689 12.9801 8.9357C13.1515 8.82378 13.0706 8.69911 12.6944 8.77703ZM13.2546 13.525L13.1723 13.5051L13.1433 13.5073L13.0662 13.6879L13.2517 13.5505C13.2526 13.542 13.2536 13.5335 13.2546 13.525ZM13.2094 8.9357L13.0684 9.04691H13.0677L13.0662 9.07878L13.2546 9.11845L13.2094 8.9357ZM13.176 14.0484L13.6323 13.9344L13.6108 13.899L13.4505 13.8706C13.3496 13.9493 13.2398 14.0031 13.0691 14.0357C13.0677 14.0414 13.0662 14.0477 13.0662 14.0534L13.176 14.0484ZM13.2546 13.4039L13.3066 13.5051L13.3697 13.5002L13.4439 13.3529L13.3845 13.3224L13.2546 13.4039ZM12.3464 14.6024L12.1216 14.7695L12.1802 14.7653C12.2707 14.8666 12.4213 14.9402 12.5957 14.9678L13.0662 14.7086L13.0424 14.659L12.3464 14.6024ZM12.1208 14.9678L11.7721 14.7851C11.7452 14.7958 11.7183 14.8067 11.6916 14.8175C11.646 14.836 11.6005 14.8544 11.5546 14.8722L12.1208 14.9678ZM11.7416 15.2023L11.7439 15.1584H11.7431C11.7148 15.1577 11.6941 15.1552 11.6779 15.1532C11.6271 15.1469 11.6201 15.146 11.5576 15.225L11.5546 15.2689L11.634 15.259L11.7416 15.2023ZM10.7993 7.66424C10.8175 7.68227 10.8355 7.70045 10.8534 7.71878C10.8744 7.80464 10.8949 7.89058 10.915 7.97662C11.1336 7.95113 11.354 7.94354 11.5739 7.95395C11.7686 7.96208 11.9519 7.98221 12.138 8.00265C12.1952 8.00893 12.2527 8.01524 12.3108 8.02124L12.2188 7.47299C12.1957 7.47348 12.1714 7.47393 12.146 7.47441C11.9852 7.47743 11.781 7.48127 11.5739 7.49778C11.2831 7.51974 10.987 7.56649 10.7993 7.66424ZM11.177 15.1315L11.1309 15.0536L10.8393 14.9678C10.8182 14.997 10.7975 15.0236 10.7774 15.0495C10.712 15.1334 10.6533 15.2087 10.6108 15.3333L11.1324 15.2951L11.177 15.1315ZM9.85465 14.0541C9.9244 14.2411 10.2494 14.4069 10.4869 14.4196L10.6108 14.2376L9.85465 14.0541ZM10.6108 14.4196L10.7525 14.4097C10.7546 14.3917 10.7566 14.3739 10.7586 14.3561C10.763 14.3162 10.7674 14.2765 10.7725 14.2369L10.6152 14.3757L10.6108 14.4196ZM10.4631 7.65574L10.2331 7.72516L10.455 7.83849L10.6108 7.83283L10.4631 7.65574ZM10.2052 15.6569C10.2133 15.6289 10.2214 15.601 10.2301 15.5735L10.2331 15.5345L10.0439 15.5161C10.0759 15.577 10.1078 15.6379 10.1396 15.6988C10.1574 15.6967 10.1759 15.6946 10.1945 15.6939C10.1981 15.6816 10.2017 15.6692 10.2052 15.6569ZM10.7755 14.8701L10.3347 14.7851L10.0439 15.2753L10.4572 15.3333L10.7993 14.9268L10.7755 14.8701ZM13.7177 8.93641L13.6323 9.05611L13.7451 9.11845L14.01 9.02495L13.9863 8.99236L13.7488 8.9357L13.7177 8.93641ZM14.01 8.38745L14.1436 8.46537C14.1085 8.42624 14.1064 8.41687 14.1008 8.41332C14.0942 8.40923 14.0828 8.41288 14.01 8.38745ZM14.01 9.22753L14.1006 9.3012L14.1993 9.11845L14.01 9.22753ZM14.3039 10.6499L14.01 10.5804C14.041 10.6601 14.17 10.6976 14.2855 10.7312C14.3221 10.7419 14.3574 10.7521 14.3877 10.7632C14.3875 10.7604 14.3873 10.7578 14.387 10.7552C14.3811 10.6868 14.3804 10.6785 14.3039 10.6499ZM14.0798 10.0329L14.0397 10.0825L14.01 10.1795L14.1993 10.2149L14.0798 10.0329ZM10.2331 16.1451L10.2131 16.0969C10.1709 16.0904 10.1408 16.0828 10.1162 16.0766C10.0561 16.0615 10.0298 16.0549 9.94444 16.0927L9.85762 16.2223L9.85465 16.2471L9.97857 16.2379L10.2331 16.1451ZM9.84797 7.65574C9.87394 7.18612 9.8309 7.04162 9.66617 6.92404V6.92474C9.67359 7.24208 9.73963 7.52328 9.84797 7.65574ZM9.7744 6.56034L9.66691 6.69808L9.76115 6.6917L9.7744 6.56034ZM9.66042 6.79468C9.66226 6.77712 9.66409 6.75956 9.66617 6.742H9.66543L9.62091 6.74483L9.47695 6.84329L9.65133 6.87374C9.65489 6.84739 9.65765 6.82103 9.66042 6.79468ZM9.75967 16.4136L9.66617 17.3443L9.72554 17.3103L10.4216 16.2471L9.75967 16.4136ZM9.81458 14.7851L9.71292 14.8425L9.67508 14.8963C9.65578 15.0443 9.66395 15.0854 9.73667 15.1506C9.82423 15.0408 9.90733 14.8899 9.81458 14.7851ZM9.31667 14.4196L9.09926 14.7532V14.7539C9.13042 14.9232 9.19721 15.0585 9.30554 15.1506C9.33557 15.106 9.36564 15.0614 9.39572 15.0168C9.48604 14.8829 9.57636 14.749 9.66543 14.6151L9.31667 14.4196ZM9.44801 15.8816L9.09926 16.1848L9.62462 16.2471L9.62465 16.2469C9.63799 16.1584 9.65134 16.07 9.66617 15.9808L9.612 15.8958L9.44801 15.8816ZM8.53317 15.9368L8.59171 15.9333C8.67852 16.0056 8.78909 16.0481 8.9553 16.0643L9.28848 15.7881L9.26473 15.7463L8.94863 15.6988L8.53317 15.9368ZM8.62955 15.5161L8.47743 15.5834L8.15539 15.6563L8.28154 15.6988L8.72156 15.5593L8.69485 15.5296L8.62955 15.5161ZM8.07748 15.1548L7.96617 15.412L8.11384 15.5161L8.30157 15.5041L8.53234 15.3532L8.48782 15.288C8.43923 15.2687 8.40106 15.2459 8.3652 15.2245C8.28661 15.1776 8.21913 15.1373 8.07748 15.1548ZM7.75024 15.6542L7.27014 15.5161L7.02156 15.9241L7.46901 16.0643L7.77695 15.7088L7.75024 15.6542ZM6.07515 15.3023L6.06731 15.2087L5.89111 15.1508C5.89073 15.1505 5.89034 15.1502 5.88996 15.1499L5.88875 15.15L5.88848 15.1499L5.88853 15.15L5.83208 15.1541L5.69926 15.3071C5.72152 15.8589 5.99681 16.308 6.67652 16.24L7.02156 15.985L6.9993 15.9291C6.67173 15.8376 6.4246 15.6155 6.1874 15.4024C6.14983 15.3686 6.11251 15.3351 6.07515 15.3023ZM5.88853 15.15L5.92335 15.2214C5.95544 15.2453 5.98813 15.2686 6.02104 15.2921C6.03988 15.3055 6.05879 15.319 6.0777 15.3326L6.07515 15.3023C6.01429 15.2489 5.95335 15.1976 5.89111 15.1508L5.88875 15.15L5.88853 15.15ZM6.34333 13.307C6.34926 13.3117 6.35589 13.3165 6.36338 13.3217L6.62058 12.7761L6.62532 12.7734C6.67307 12.8538 6.72827 12.9188 6.78249 12.9827C6.88415 13.1026 6.98236 13.2183 7.02156 13.423L6.57337 13.8699C6.43401 13.7708 6.32738 13.6356 6.26617 13.4804L6.26691 13.4796L6.34333 13.307ZM6.27614 13.2074C6.29636 13.2552 6.30574 13.2774 6.34333 13.307L6.56447 12.8074L6.62058 12.7761L6.64387 12.7267L6.54666 12.5907L6.39603 12.7168L6.26691 13.1857C6.27027 13.1935 6.27331 13.2007 6.27614 13.2074ZM7.21152 13.6872L6.83309 14.0392C7.0223 14.0435 7.21078 14.0477 7.39926 14.0534L7.21152 13.6872ZM7.51232 10.789C7.60311 10.6513 7.6961 10.5102 7.77695 10.3453L7.70943 10.2142L7.65155 10.2461C7.61559 10.3304 7.55713 10.4303 7.49437 10.5376C7.34603 10.7912 7.17366 11.086 7.21746 11.3114C7.29552 11.1178 7.4023 10.9558 7.51232 10.789ZM8.44775 8.93499C8.24666 9.10499 8.05818 9.25657 7.77695 9.33945L8.29415 9.48324L8.53309 9.17866L8.44775 8.93499ZM8.61916 9.48324L8.72156 9.35857L8.70672 9.30049L8.53457 9.44924L8.53309 9.46907L8.61916 9.48324ZM8.60284 8.56949L8.57316 8.57091C8.51083 8.74586 8.50415 8.84857 8.67704 8.93499L8.72156 8.8082L8.60284 8.56949ZM8.71192 13.9896L8.53754 13.8699C8.53558 13.8848 8.53409 13.8996 8.53309 13.9146L8.71192 13.9896ZM8.72156 14.1306L8.53457 14.0534L8.15836 14.1412L8.15465 14.1639C8.15914 14.178 8.16329 14.1919 8.16736 14.2056C8.19424 14.2959 8.21802 14.3758 8.3179 14.4189L8.71859 14.1519C8.71946 14.1448 8.72045 14.1377 8.72156 14.1306ZM8.15539 13.7566L7.97582 13.6872L7.96617 13.8196L8.05893 13.8097L8.15539 13.7566ZM8.13108 10.0869C8.12082 10.0679 8.08324 10.0636 7.96617 10.0322C7.97101 10.041 7.97547 10.0492 7.97966 10.0569C8.02173 10.1344 8.03642 10.1614 8.1309 10.2142C8.12623 10.1357 8.14071 10.1048 8.13108 10.0869ZM7.98175 13.1389L7.96617 13.2969C8.02926 13.305 8.09234 13.3133 8.15539 13.3217C8.10048 13.2324 8.07006 13.1977 7.98175 13.1389ZM8.22895 11.1002C8.27995 11.0823 8.29219 11.0781 8.34461 11.0139L8.23776 10.9452L8.15539 11.128C8.18734 11.1147 8.21064 11.1066 8.22895 11.1002ZM8.22588 10.397L8.34461 10.2787L8.28673 10.2142L8.21624 10.2404C8.19967 10.2771 8.1829 10.3 8.17117 10.3159C8.14506 10.3515 8.14397 10.353 8.22588 10.397ZM8.15539 9.84874L8.32903 9.96774C8.29565 9.92094 8.28475 9.9026 8.26885 9.8913C8.25083 9.87848 8.22637 9.87471 8.15539 9.84874ZM7.96617 13.3217L8.15539 13.4655C8.05893 13.4634 8.00698 13.4435 7.96617 13.3217ZM8.45591 13.3217L8.53309 13.3146C8.51196 13.2733 8.49159 13.2316 8.47117 13.1898C8.4629 13.1728 8.45461 13.1559 8.44627 13.1389L8.34387 13.1489L8.38987 13.2055L8.45591 13.3217ZM8.42552 9.92672L8.34387 9.84945C8.38569 9.87725 8.39256 9.87743 8.39625 9.88095C8.39977 9.88429 8.4004 9.89066 8.42552 9.92672ZM8.34387 12.7494L8.44033 12.9406L8.53309 12.9562L8.40842 12.5907L8.38468 12.5921L8.34387 12.7494ZM7.96617 15.0918L7.94539 15.0677V15.0684L7.58848 14.9678C7.60425 15.0486 7.64087 15.1243 7.69503 15.1881C7.74919 15.2519 7.81918 15.3019 7.89865 15.3333L7.96617 15.0918ZM7.58848 15.4934L7.39926 15.3333C7.3136 14.979 6.91288 14.7682 6.56027 14.5827C6.45467 14.5271 6.35339 14.4738 6.26617 14.4196C6.56205 14.8061 6.95058 15.1195 7.39926 15.3333C7.4566 15.4382 7.46649 15.4423 7.56869 15.4851C7.57493 15.4877 7.58152 15.4905 7.58848 15.4934ZM7.74801 13.8706L7.72575 13.7127L7.58848 13.6879L7.74801 13.8706ZM7.39926 14.2369L7.53876 14.5676L7.7777 14.6024C7.69385 14.4777 7.56473 14.2971 7.39926 14.2369ZM7.73392 11.3122L7.68717 11.3136L7.67752 11.3532C7.60109 11.4064 7.57364 11.4496 7.5959 11.4949L7.73392 11.3122ZM7.55063 12.9569L7.58848 12.8846L7.54767 12.7741L7.39926 12.7897L7.4423 12.8769L7.55063 12.9569ZM7.39926 14.4196L7.24788 14.2425L7.02156 14.2369L7.39926 14.4196ZM8.34387 14.5089L8.63103 14.7851L8.91078 14.5549L8.84622 14.0541L8.34387 14.5089ZM8.9605 14.9714L8.91078 15.0904L9.09926 15.1506L9.02728 14.9678L8.9605 14.9714ZM9.09926 14.2369L9.1653 14.4196L9.23654 14.2609L9.09926 14.2369ZM8.91227 8.24791L8.91078 8.2642L8.96866 8.38674L9.09926 8.20399C9.03694 8.21957 8.97462 8.23374 8.91229 8.2479L8.91227 8.24791ZM6.83309 11.6776L7.00598 12.0431C7.00714 12.0276 7.00851 12.0122 7.00986 11.997C7.02311 11.8476 7.03447 11.7194 6.83309 11.6776ZM6.26617 11.6776C6.27879 11.9057 6.38193 12.1189 6.54369 12.2259L6.64461 12.1657C6.63663 12.1304 6.6299 12.0975 6.62363 12.0669C6.57861 11.847 6.55732 11.7429 6.26617 11.6776ZM6.6127 9.98403C6.45836 10.1845 6.10738 11.0543 6.34854 11.2718L6.58747 11.3122C6.64164 10.7781 6.7945 10.2553 7.02156 9.8714L6.93178 9.84945C6.89951 9.85858 6.86912 9.86542 6.84042 9.87187C6.74899 9.89242 6.67483 9.90909 6.6127 9.98403ZM6.11109 14.4217L5.99607 14.2369L5.8818 14.3006C5.69781 14.4021 5.60723 14.5955 5.51421 14.7941L5.51078 14.8014L5.83134 15.0819C5.88141 15.0963 5.93718 15.0838 5.99353 15.0712C6.06745 15.0546 6.14239 15.0378 6.20681 15.0812C6.27642 15.128 6.27424 15.1977 6.27184 15.2741C6.26992 15.3353 6.26787 15.4008 6.30253 15.4623L6.9852 15.8816L7.21004 15.5033C6.79747 15.2972 6.42348 14.9346 6.17861 14.5556C6.135 14.5896 6.10416 14.6202 6.07898 14.6452C6.03132 14.6924 6.00393 14.7196 5.94858 14.7121L6.00794 14.6519L6.11109 14.4217ZM5.45364 11.6798C5.40575 11.8579 5.36883 12.0386 5.34308 12.2209C5.29411 12.6013 5.32156 12.9562 5.54195 13.1347C5.5385 13.1144 5.53441 13.0922 5.53004 13.0685C5.49868 12.8983 5.45304 12.6506 5.52859 12.4859C5.49668 13.0681 5.71855 13.5009 6.0777 13.6879C5.9278 13.2941 5.77791 12.8995 5.62951 12.5043L5.57756 12.2209L5.47887 11.6776L5.45364 11.6798ZM4.95129 12.1891C4.9592 12.2652 4.98078 12.3395 5.0151 12.4086V12.4079L5.05072 12.1884L5.13309 11.6776L4.98691 11.8158L4.95426 11.8809C4.94171 11.9833 4.94072 12.0866 4.95129 12.1891ZM17.7877 14.0973L18.1654 14.2361L18.1543 14.0541L17.7877 14.0973ZM8.26892 17.1616L8.17023 17.2111L8.16949 17.2118L8.15465 17.3436L8.26892 17.1616ZM11.7157 5.09796L11.6363 5.08379L11.6422 5.04767L12.1052 5.02571L12.1216 4.91804C11.9138 4.90374 11.6986 4.93037 11.5924 5.03766L11.5999 5.02571C11.6386 4.96492 11.6774 4.90423 11.7164 4.84367C11.9309 4.75725 12.0629 4.70413 12.2922 4.74733C12.3412 4.89537 12.2863 5.05758 12.1898 5.21058L11.9674 5.27993L11.8344 5.263C11.8595 5.25673 11.8819 5.25563 11.8993 5.25477C11.937 5.25291 11.9517 5.25219 11.9212 5.20279C11.7602 5.21554 11.6726 5.19571 11.5999 5.13904C11.584 5.12595 11.5691 5.11174 11.5554 5.09654L11.5614 5.08704C11.5649 5.08687 11.5684 5.08669 11.572 5.0865C11.5844 5.08586 11.597 5.08521 11.6096 5.08521L11.7157 5.09796ZM11.9674 5.27993L11.9672 5.28H11.968L11.9674 5.27993ZM11.5614 5.08704C11.5591 5.08714 11.5569 5.08724 11.5546 5.08733C11.5649 5.06914 11.5776 5.05261 11.5924 5.03766L11.5614 5.08704ZM17.2216 6.96795L17.4605 6.92545L17.5993 6.99629C17.5533 7.18153 17.4564 7.2853 17.3502 7.39908C17.3276 7.42321 17.3047 7.44779 17.2817 7.4737L17.5369 7.02745L17.3685 6.95804L17.2216 6.96795ZM15.1439 16.3526L15.3323 16.2478H15.3331L15.2886 16.3399L15.1439 16.3526Z" fill="white"/>
</g>
<defs>
<clipPath id="clip0_5339_319">
<rect width="24" height="24" fill="white"/>
</clipPath>
</defs>
</svg>
