<svg width="25" height="24" viewBox="0 0 25 24" fill="none" xmlns="http://www.w3.org/2000/svg">
<path d="M12.6665 0C6.0425 0 0.666504 5.376 0.666504 12C0.666504 18.624 6.0425 24 12.6665 24C19.2905 24 24.6665 18.624 24.6665 12C24.6665 5.376 19.2905 0 12.6665 0ZM18.2345 8.16C18.0545 10.056 17.2745 14.664 16.8785 16.788C16.7105 17.688 16.3745 17.988 16.0625 18.024C15.3665 18.084 14.8385 17.568 14.1665 17.124C13.1105 16.428 12.5105 15.996 11.4905 15.324C10.3025 14.544 11.0705 14.112 11.7545 13.416C11.9345 13.236 15.0065 10.44 15.0665 10.188C15.0748 10.1498 15.0737 10.1102 15.0633 10.0726C15.0528 10.0349 15.0333 10.0004 15.0065 9.972C14.9345 9.912 14.8385 9.936 14.7545 9.948C14.6465 9.972 12.9665 11.088 9.69051 13.296C9.2105 13.62 8.7785 13.788 8.3945 13.776C7.9625 13.764 7.1465 13.536 6.5345 13.332C5.7785 13.092 5.1905 12.96 5.2385 12.54C5.2625 12.324 5.5625 12.108 6.1265 11.88C9.6305 10.356 11.9585 9.348 13.1225 8.868C16.4585 7.476 17.1425 7.236 17.5985 7.236C17.6945 7.236 17.9225 7.26 18.0665 7.38C18.1865 7.476 18.2225 7.608 18.2345 7.704C18.2225 7.776 18.2465 7.992 18.2345 8.16Z" fill="white"/>
</svg>
