<svg width="97" height="30" viewBox="0 0 97 30" fill="none" xmlns="http://www.w3.org/2000/svg">
<path d="M0 22.7275V5.21844H7.08345C8.71183 5.21844 10.096 5.68649 11.2358 6.62259C12.3843 7.55055 12.9585 8.65758 12.9585 9.9437C12.9585 10.6926 12.7314 11.4048 12.2771 12.0804C11.8315 12.7479 11.2658 13.2119 10.5802 13.4724C11.5229 13.684 12.29 14.1765 12.8813 14.9498C13.4727 15.7231 13.7684 16.6307 13.7684 17.6726C13.7684 19.0971 13.1899 20.2977 12.0329 21.2745C10.8759 22.2432 9.49174 22.7275 7.8805 22.7275H0ZM4.47376 12.1049H6.87776C7.33199 12.1049 7.71338 11.9665 8.02191 11.6897C8.33045 11.413 8.48471 11.0752 8.48471 10.6763C8.48471 10.2937 8.32616 9.96405 8.00906 9.68729C7.70052 9.41053 7.32342 9.27215 6.87776 9.27215H4.47376V12.1049ZM4.47376 18.6738H7.48198C7.97906 18.6738 8.39901 18.511 8.74183 18.1854C9.09321 17.8598 9.26891 17.465 9.26891 17.0011C9.26891 16.5371 9.0975 16.1423 8.75468 15.8167C8.42044 15.4911 8.01334 15.3283 7.5334 15.3283H4.47376V18.6738Z" fill="white"/>
<path d="M16.5231 11.995C17.8086 10.7658 19.407 10.1513 21.3182 10.1513C23.2294 10.1513 24.8321 10.7658 26.1262 11.995C27.4204 13.2241 28.0674 14.7585 28.0674 16.5981C28.0674 17.7947 27.7718 18.8814 27.1804 19.8582C26.589 20.835 25.7791 21.6001 24.7507 22.1537C23.7222 22.699 22.5781 22.9717 21.3182 22.9717C19.407 22.9717 17.8086 22.3653 16.5231 21.1524C15.2461 19.9396 14.6076 18.4215 14.6076 16.5981C14.6076 14.7503 15.2461 13.216 16.5231 11.995ZM21.3182 13.9974C20.5812 13.9974 19.9684 14.2457 19.4799 14.7422C18.9914 15.2306 18.7471 15.8492 18.7471 16.5981C18.7471 17.3226 18.9914 17.9249 19.4799 18.4052C19.9684 18.8855 20.5812 19.1256 21.3182 19.1256C22.0724 19.1256 22.6938 18.8855 23.1823 18.4052C23.6794 17.9249 23.9279 17.3226 23.9279 16.5981C23.9279 15.8492 23.6794 15.2306 23.1823 14.7422C22.6938 14.2457 22.0724 13.9974 21.3182 13.9974Z" fill="white"/>
<path d="M38.0084 14.2538H34.9231V17.404C34.9231 17.9656 35.1202 18.393 35.5144 18.686C35.9087 18.9791 36.4143 19.1256 37.0314 19.1256C37.4171 19.1256 37.7428 19.093 38.0084 19.0279V22.7275C37.5199 22.8578 36.8686 22.9229 36.0544 22.9229C34.4517 22.9229 33.1619 22.4386 32.1848 21.4699C31.2078 20.4931 30.7193 19.1622 30.7193 17.4772V14.2538H28.341V10.3955H30.7193V7.2453H34.9231V10.3955H38.0084V14.2538Z" fill="white"/>
<rect x="42.8807" y="0.5" width="54.1193" height="29" rx="4" fill="#1C64F2"/>
<path d="M56.6391 10.1513C58.2932 10.1513 59.5873 10.6519 60.5215 11.6531C61.4557 12.6543 61.9227 14.0381 61.9227 15.8045V22.7275H57.6932V16.3295C57.6932 15.6295 57.4961 15.0678 57.1019 14.6445C56.7076 14.2131 56.1848 13.9974 55.5335 13.9974C54.8907 13.9974 54.3679 14.2131 53.9651 14.6445C53.5709 15.0678 53.3738 15.6295 53.3738 16.3295V22.7275H49.1571V5.21844H53.3738V11.824C54.1879 10.7089 55.2764 10.1513 56.6391 10.1513Z" fill="white"/>
<path d="M72.3908 10.3955H76.6203V22.7275H72.3908V21.3234C71.5681 22.4223 70.4882 22.9717 69.1512 22.9717C67.4971 22.9717 66.1987 22.4752 65.256 21.4821C64.3218 20.4809 63.8547 19.0971 63.8547 17.3307V10.3955H68.0713V16.8057C68.0713 17.5057 68.2685 18.0674 68.6627 18.4907C69.0655 18.9139 69.5969 19.1256 70.2568 19.1256C70.8996 19.1256 71.4138 18.9139 71.7995 18.4907C72.1937 18.0674 72.3908 17.5057 72.3908 16.8057V10.3955Z" fill="white"/>
<path d="M86.5613 10.1513C87.6412 10.1513 88.6311 10.4402 89.531 11.0182C90.4394 11.5961 91.1508 12.3775 91.665 13.3625C92.1878 14.3393 92.4492 15.4097 92.4492 16.5737C92.4492 18.3401 91.875 19.85 90.7266 21.1036C89.5867 22.349 88.1983 22.9717 86.5613 22.9717C84.9415 22.9717 83.6774 22.3897 82.7689 21.2257V22.7275H78.5523V5.21844H82.7689V11.8973C83.6774 10.7333 84.9415 10.1513 86.5613 10.1513ZM85.5586 19.15C86.3214 19.15 86.9727 18.9017 87.5126 18.4052C88.0526 17.9005 88.3226 17.29 88.3226 16.5737C88.3226 15.8492 88.0526 15.2387 87.5126 14.7422C86.9813 14.2457 86.3299 13.9974 85.5586 13.9974C84.7787 13.9974 84.1188 14.2457 83.5788 14.7422C83.0389 15.2387 82.7689 15.8492 82.7689 16.5737C82.7689 17.29 83.0389 17.9005 83.5788 18.4052C84.1188 18.9017 84.7787 19.15 85.5586 19.15Z" fill="white"/>
</svg>
